<svg width="28" height="28" viewBox="0 0 28 28" fill="none" xmlns="http://www.w3.org/2000/svg">
<path d="M23.3334 14V8.16663H25.6667V15.1666H23.3334M23.3334 19.8333H25.6667V17.5H23.3334M11.6667 15.1666C14.7817 15.1666 21 16.73 21 19.8333V23.3333H2.33337V19.8333C2.33337 16.73 8.55171 15.1666 11.6667 15.1666ZM11.6667 4.66663C12.9044 4.66663 14.0914 5.15829 14.9665 6.03346C15.8417 6.90863 16.3334 8.09562 16.3334 9.33329C16.3334 10.571 15.8417 11.758 14.9665 12.6331C14.0914 13.5083 12.9044 14 11.6667 14C10.429 14 9.24205 13.5083 8.36688 12.6331C7.49171 11.758 7.00004 10.571 7.00004 9.33329C7.00004 8.09562 7.49171 6.90863 8.36688 6.03346C9.24205 5.15829 10.429 4.66663 11.6667 4.66663ZM11.6667 17.3833C8.20171 17.3833 4.55004 19.0866 4.55004 19.8333V21.1166H18.7834V19.8333C18.7834 19.0866 15.1317 17.3833 11.6667 17.3833ZM11.6667 6.88329C11.0169 6.88329 10.3938 7.14142 9.9343 7.60088C9.47483 8.06034 9.21671 8.68351 9.21671 9.33329C9.21671 9.98307 9.47483 10.6062 9.9343 11.0657C10.3938 11.5252 11.0169 11.7833 11.6667 11.7833C12.3165 11.7833 12.9397 11.5252 13.3991 11.0657C13.8586 10.6062 14.1167 9.98307 14.1167 9.33329C14.1167 8.68351 13.8586 8.06034 13.3991 7.60088C12.9397 7.14142 12.3165 6.88329 11.6667 6.88329Z" fill="black"/>
</svg>
