<svg width="28" height="28" viewBox="0 0 28 28" fill="none" xmlns="http://www.w3.org/2000/svg">
<path d="M18.6666 22.1667C17.7384 22.1667 16.8482 21.7979 16.1918 21.1415C15.5354 20.4852 15.1666 19.5949 15.1666 18.6667C15.1666 17.7384 15.5354 16.8482 16.1918 16.1918C16.8482 15.5354 17.7384 15.1667 18.6666 15.1667C19.5949 15.1667 20.4851 15.5354 21.1415 16.1918C21.7979 16.8482 22.1666 17.7384 22.1666 18.6667C22.1666 19.5949 21.7979 20.4852 21.1415 21.1415C20.4851 21.7979 19.5949 22.1667 18.6666 22.1667ZM9.33331 22.1667C8.40506 22.1667 7.51482 21.7979 6.85844 21.1415C6.20206 20.4852 5.83331 19.5949 5.83331 18.6667C5.83331 17.7384 6.20206 16.8482 6.85844 16.1918C7.51482 15.5354 8.40506 15.1667 9.33331 15.1667C10.2616 15.1667 11.1518 15.5354 11.8082 16.1918C12.4646 16.8482 12.8333 17.7384 12.8333 18.6667C12.8333 19.5949 12.4646 20.4852 11.8082 21.1415C11.1518 21.7979 10.2616 22.1667 9.33331 22.1667ZM18.6666 12.8333C17.7384 12.8333 16.8482 12.4646 16.1918 11.8082C15.5354 11.1518 15.1666 10.2616 15.1666 9.33333C15.1666 8.40508 15.5354 7.51484 16.1918 6.85846C16.8482 6.20208 17.7384 5.83333 18.6666 5.83333C19.5949 5.83333 20.4851 6.20208 21.1415 6.85846C21.7979 7.51484 22.1666 8.40508 22.1666 9.33333C22.1666 10.2616 21.7979 11.1518 21.1415 11.8082C20.4851 12.4646 19.5949 12.8333 18.6666 12.8333ZM9.33331 12.8333C8.40506 12.8333 7.51482 12.4646 6.85844 11.8082C6.20206 11.1518 5.83331 10.2616 5.83331 9.33333C5.83331 8.40508 6.20206 7.51484 6.85844 6.85846C7.51482 6.20208 8.40506 5.83333 9.33331 5.83333C10.2616 5.83333 11.1518 6.20208 11.8082 6.85846C12.4646 7.51484 12.8333 8.40508 12.8333 9.33333C12.8333 10.2616 12.4646 11.1518 11.8082 11.8082C11.1518 12.4646 10.2616 12.8333 9.33331 12.8333Z" fill="black"/>
</svg>
